<svg width="570" height="366" viewBox="0 0 570 366" fill="none" xmlns="http://www.w3.org/2000/svg">
<path d="M566.982 72.9195C591.477 -83.8271 351.772 66.6994 257.29 29.3788C162.807 -7.94184 5.33686 81.6276 0.0878422 150.049C-5.16118 218.47 225.796 359.044 434.007 365.264C642.218 371.485 542.487 229.666 566.982 72.9195Z" fill="#DFE6E0"/>
<g clip-path="url(#clip0)">
<path d="M431.238 80.3379H156.81C156.704 80.3379 156.603 80.2986 156.528 80.2287C156.454 80.1589 156.412 80.0641 156.412 79.9653C156.412 79.8665 156.454 79.7717 156.528 79.7019C156.603 79.632 156.704 79.5928 156.81 79.5928H431.238C431.343 79.5928 431.445 79.632 431.519 79.7019C431.594 79.7717 431.636 79.8665 431.636 79.9653C431.636 80.0641 431.594 80.1589 431.519 80.2287C431.445 80.2986 431.343 80.3379 431.238 80.3379Z" fill="#CACACA"/>
<path d="M165.775 75.1222C168.194 75.1222 170.156 73.2874 170.156 71.0241C170.156 68.7609 168.194 66.9261 165.775 66.9261C163.355 66.9261 161.393 68.7609 161.393 71.0241C161.393 73.2874 163.355 75.1222 165.775 75.1222Z" fill="#3F3D56"/>
<path d="M180.91 75.1222C183.33 75.1222 185.291 73.2874 185.291 71.0241C185.291 68.7609 183.33 66.9261 180.91 66.9261C178.49 66.9261 176.529 68.7609 176.529 71.0241C176.529 73.2874 178.49 75.1222 180.91 75.1222Z" fill="#3F3D56"/>
<path d="M196.045 75.1222C198.465 75.1222 200.427 73.2874 200.427 71.0241C200.427 68.7609 198.465 66.9261 196.045 66.9261C193.626 66.9261 191.664 68.7609 191.664 71.0241C191.664 73.2874 193.626 75.1222 196.045 75.1222Z" fill="#3F3D56"/>
<path d="M328.801 118.269H259.247C258.378 118.269 257.545 117.946 256.93 117.371C256.316 116.797 255.971 116.017 255.971 115.204C255.971 114.392 256.316 113.612 256.93 113.038C257.545 112.463 258.378 112.14 259.247 112.14H328.801C329.669 112.14 330.503 112.463 331.117 113.038C331.731 113.612 332.077 114.392 332.077 115.204C332.077 116.017 331.731 116.797 331.117 117.371C330.503 117.946 329.669 118.269 328.801 118.269Z" fill="#E4E4E4"/>
<path d="M317.586 107.779H270.461C269.593 107.779 268.761 107.455 268.147 106.881C267.533 106.306 267.189 105.527 267.189 104.715C267.189 103.903 267.533 103.124 268.147 102.55C268.761 101.975 269.593 101.652 270.461 101.651H317.586C318.455 101.651 319.288 101.974 319.903 102.548C320.517 103.123 320.862 103.902 320.862 104.715C320.862 105.528 320.517 106.307 319.903 106.882C319.288 107.457 318.455 107.779 317.586 107.779Z" fill="#E4E4E4"/>
<path d="M205.694 204.854C221.752 204.854 234.77 192.678 234.77 177.658C234.77 162.638 221.752 150.462 205.694 150.462C189.636 150.462 176.618 162.638 176.618 177.658C176.618 192.678 189.636 204.854 205.694 204.854Z" fill="#F0F0F0"/>
<path d="M393.691 204.854C409.749 204.854 422.767 192.678 422.767 177.658C422.767 162.638 409.749 150.462 393.691 150.462C377.633 150.462 364.615 162.638 364.615 177.658C364.615 192.678 377.633 204.854 393.691 204.854Z" fill="#F0F0F0"/>
<path d="M294.116 204.854C310.174 204.854 323.192 192.678 323.192 177.658C323.192 162.638 310.174 150.462 294.116 150.462C278.058 150.462 265.04 162.638 265.04 177.658C265.04 192.678 278.058 204.854 294.116 204.854Z" fill="#F0F0F0"/>
<path d="M407.822 189.445C405.531 188.316 403.139 187.374 400.674 186.631L400.36 183.379L387.612 182.094L385.992 186.252L381.417 187.857C381.253 187.915 381.097 187.991 380.953 188.083H380.948C380.199 188.143 379.477 188.376 378.849 188.762C378.423 189.016 378.044 189.334 377.727 189.703C378.346 190.142 378.989 190.549 379.652 190.938L379.681 190.951C379.87 191.06 380.063 191.168 380.256 191.273C380.605 191.467 380.962 191.652 381.32 191.829L381.548 191.937C382.07 192.191 382.602 192.43 383.148 192.652C383.26 192.697 383.381 192.743 383.492 192.788C383.501 192.792 383.506 192.792 383.516 192.797C383.772 192.896 384.028 192.991 384.29 193.082C385.147 193.388 386.022 193.651 386.911 193.869C389.178 194.434 391.514 194.72 393.86 194.719C394.716 194.719 395.563 194.683 396.399 194.606C398.311 194.441 400.198 194.085 402.028 193.543C402.033 193.543 402.038 193.539 402.043 193.539C403.199 193.194 404.329 192.776 405.423 192.286C405.428 192.281 405.438 192.281 405.443 192.277C405.689 192.168 405.926 192.051 406.168 191.937L406.284 191.883C406.478 191.788 406.671 191.693 406.865 191.594C407.348 191.345 407.822 191.083 408.291 190.802C408.421 190.73 408.547 190.653 408.678 190.571C408.862 190.458 409.045 190.341 409.224 190.219C408.775 189.947 408.306 189.689 407.822 189.445Z" fill="#61CE78"/>
<path d="M393.486 180.038C398.556 180.038 402.667 176.193 402.667 171.451C402.667 166.708 398.556 162.863 393.486 162.863C388.415 162.863 384.305 166.708 384.305 171.451C384.305 176.193 388.415 180.038 393.486 180.038Z" fill="#A0616A"/>
<path d="M387.322 167.268C388.272 168.32 389.88 168.617 391.364 168.738C394.377 168.986 398.759 168.585 401.704 167.949C401.914 169.854 401.341 171.909 402.541 173.476C403.103 171.578 403.43 169.627 403.515 167.659C403.605 166.815 403.487 165.963 403.171 165.168C403.002 164.769 402.717 164.423 402.348 164.169C401.979 163.915 401.541 163.762 401.084 163.729C401.768 163.244 402.569 162.923 403.417 162.796L400.502 161.426L401.25 160.707L395.973 160.405L397.501 159.496C395.2 159.201 392.873 159.132 390.557 159.291C389.481 159.365 388.357 159.507 387.485 160.09C386.614 160.673 386.11 161.831 386.651 162.687C385.974 162.791 385.336 163.055 384.799 163.454C384.261 163.853 383.841 164.374 383.579 164.967C383.247 165.91 383.167 166.915 383.346 167.893C383.545 169.463 383.935 171.007 384.508 172.494L387.322 167.268Z" fill="#2F2E41"/>
<path d="M295.729 162.933C297.873 162.933 299.611 161.308 299.611 159.302C299.611 157.297 297.873 155.671 295.729 155.671C293.585 155.671 291.847 157.297 291.847 159.302C291.847 161.308 293.585 162.933 295.729 162.933Z" fill="#2F2E41"/>
<path d="M292.361 161.191C291.871 160.762 291.507 160.221 291.307 159.622C291.106 159.022 291.076 158.384 291.218 157.769C291.36 157.155 291.67 156.586 292.118 156.118C292.566 155.649 293.136 155.297 293.773 155.097C293.24 155.17 292.728 155.346 292.272 155.614C291.815 155.882 291.423 156.235 291.121 156.653C290.819 157.07 290.613 157.542 290.516 158.038C290.419 158.534 290.434 159.043 290.56 159.534C290.685 160.024 290.919 160.485 291.245 160.886C291.571 161.287 291.983 161.621 292.455 161.865C292.926 162.109 293.447 162.258 293.984 162.304C294.521 162.35 295.062 162.29 295.572 162.129C294.996 162.209 294.408 162.166 293.852 162.003C293.296 161.841 292.787 161.563 292.361 161.191L292.361 161.191Z" fill="#2F2E41"/>
<path d="M295.807 182.568C302.105 182.568 307.211 177.792 307.211 171.902C307.211 166.011 302.105 161.235 295.807 161.235C289.509 161.235 284.404 166.011 284.404 171.902C284.404 177.792 289.509 182.568 295.807 182.568Z" fill="#2F2E41"/>
<path d="M285.663 166.029C287.627 163.962 290.374 162.69 293.323 162.481C296.271 162.272 299.191 163.143 301.466 164.91C301.373 164.827 301.28 164.744 301.184 164.663C298.932 162.776 295.969 161.802 292.95 161.958C289.93 162.113 287.1 163.384 285.081 165.491C283.063 167.598 282.023 170.368 282.189 173.193C282.355 176.018 283.713 178.665 285.966 180.552C285.988 180.571 286.009 180.589 286.031 180.607C286.128 180.687 286.227 180.763 286.327 180.84C284.184 178.934 282.917 176.323 282.794 173.56C282.67 170.797 283.699 168.096 285.663 166.029H285.663Z" fill="#2F2E41"/>
<path d="M295.711 182.477C299.767 182.477 303.055 179.402 303.055 175.608C303.055 171.814 299.767 168.738 295.711 168.738C291.654 168.738 288.366 171.814 288.366 175.608C288.366 179.402 291.654 182.477 295.711 182.477Z" fill="#A0616A"/>
<path d="M308.853 193.507V195.812C308.402 196.081 307.947 196.333 307.482 196.573C307.296 196.668 307.11 196.76 306.924 196.851L306.812 196.903C306.58 197.012 306.352 197.125 306.115 197.229C306.11 197.234 306.101 197.234 306.096 197.238C305.044 197.709 303.958 198.111 302.846 198.443C302.841 198.443 302.837 198.447 302.832 198.447C301.072 198.968 299.258 199.31 297.42 199.469C296.616 199.543 295.802 199.578 294.979 199.578C292.723 199.578 290.477 199.303 288.298 198.76C287.186 198.487 286.095 198.142 285.034 197.729C285.024 197.725 285.02 197.725 285.01 197.721C284.903 197.677 284.787 197.634 284.68 197.59C284.155 197.377 283.643 197.147 283.141 196.903L282.923 196.799C282.388 196.533 281.863 196.255 281.346 195.955L281.319 195.942C280.524 195.479 279.757 194.975 279.022 194.433C278.645 194.163 278.282 193.881 277.929 193.585C277.743 193.437 277.557 193.28 277.38 193.128C276.701 192.541 276.057 191.92 275.451 191.267C275.531 190.814 275.649 190.367 275.804 189.932L275.809 189.927C275.837 189.853 275.869 189.781 275.906 189.71C275.932 189.648 275.962 189.587 275.995 189.527C276.827 188.07 278.334 187.709 280.203 187.631C281.258 187.588 282.425 187.636 283.657 187.622C284.308 187.618 284.982 187.596 285.657 187.54C289.911 187.179 289.139 184.83 289.33 183.565C289.52 182.338 290.701 183.4 290.78 183.469L290.785 183.474C293.192 184.527 295.856 184.964 298.503 184.739C298.959 184.687 299.415 184.656 299.87 184.643C301.07 184.63 300.809 184.952 300.396 185.218C300.195 185.341 299.985 185.452 299.768 185.548C299.768 185.548 299.577 186.635 299.382 188.262C299.196 189.819 305.059 190.358 306.208 190.697H306.212C306.868 190.923 307.453 191.298 307.914 191.788C308.375 192.279 308.698 192.87 308.853 193.507V193.507Z" fill="#61CE78"/>
<path d="M288.27 175.156C288.59 175.156 288.849 174.711 288.849 174.162C288.849 173.613 288.59 173.168 288.27 173.168C287.949 173.168 287.69 173.613 287.69 174.162C287.69 174.711 287.949 175.156 288.27 175.156Z" fill="#A0616A"/>
<path d="M303.152 175.156C303.473 175.156 303.732 174.711 303.732 174.162C303.732 173.613 303.473 173.168 303.152 173.168C302.832 173.168 302.573 173.613 302.573 174.162C302.573 174.711 302.832 175.156 303.152 175.156Z" fill="#A0616A"/>
<path d="M196.392 179.562L197.787 184.083L215.617 183.789L215.461 175.506C215.337 168.949 210.383 163.295 203.374 163.41C196.364 163.526 191.907 169.069 192.031 175.625L193.049 184.161L195.956 184.113L196.392 179.562Z" fill="#2F2E41"/>
<path d="M204.171 182.724C208.589 182.724 212.171 179.373 212.171 175.241C212.171 171.108 208.589 167.758 204.171 167.758C199.752 167.758 196.171 171.108 196.171 175.241C196.171 179.373 199.752 182.724 204.171 182.724Z" fill="#FFB6B6"/>
<path d="M212.928 169.987C212.918 169.414 212.726 168.856 212.377 168.385C212.34 168.337 212.303 168.292 212.266 168.247C211.97 167.893 211.59 167.608 211.156 167.414C210.723 167.221 210.247 167.123 209.766 167.13L204.017 167.227L198.27 167.32C197.447 167.335 196.664 167.655 196.092 168.209C195.521 168.764 195.207 169.507 195.22 170.277L196.588 172.854L197.376 174.334L197.505 174.265C202.478 171.65 204.512 171.616 211.094 174.047L211.227 174.096L211.749 172.847L212.932 170.014L212.928 169.987Z" fill="#2F2E41"/>
<path d="M220.094 186.91C218.379 185.309 212.573 185.945 212.573 185.945L197.25 186.848C193.852 187.083 190.79 189.628 189.681 190.659C189.858 190.822 190.039 190.981 190.224 191.133C193.63 193.964 197.91 195.707 202.445 196.11C206.981 196.513 211.536 195.555 215.45 193.374C217.092 192.458 219.192 191.359 220.509 190.075C221.03 189.571 221.447 189.581 221.91 189.027C221.564 188.157 220.927 187.415 220.094 186.91V186.91Z" fill="#61CE78"/>
<path d="M205.694 279.736C221.752 279.736 234.77 267.56 234.77 252.54C234.77 237.52 221.752 225.344 205.694 225.344C189.636 225.344 176.618 237.52 176.618 252.54C176.618 267.56 189.636 279.736 205.694 279.736Z" fill="#F0F0F0"/>
<path d="M393.691 279.736C409.749 279.736 422.767 267.56 422.767 252.54C422.767 237.52 409.749 225.344 393.691 225.344C377.633 225.344 364.615 237.52 364.615 252.54C364.615 267.56 377.633 279.736 393.691 279.736Z" fill="#F0F0F0"/>
<path d="M294.116 279.736C310.174 279.736 323.192 267.56 323.192 252.54C323.192 237.52 310.174 225.344 294.116 225.344C278.058 225.344 265.04 237.52 265.04 252.54C265.04 267.56 278.058 279.736 294.116 279.736Z" fill="#F0F0F0"/>
<path d="M205.218 256.441C209.657 256.441 213.256 253.075 213.256 248.923C213.256 244.77 209.657 241.404 205.218 241.404C200.779 241.404 197.18 244.77 197.18 248.923C197.18 253.075 200.779 256.441 205.218 256.441Z" fill="#FFB8B8"/>
<path d="M197.613 251.275C197.613 251.275 198.296 250.153 198.138 246.405C197.979 242.658 204.08 244.777 209.178 244.42C214.277 244.062 213.197 250.677 213.197 250.677C213.197 250.677 213.565 250.284 214.353 247.091C215.14 243.899 213.352 240.718 213.352 240.718C212.826 237.363 209.988 238.438 209.988 238.438C211.354 238.936 211.092 240 211.092 240C209.935 238.103 207.097 239.178 207.097 239.178C203.312 236.956 199.476 239.882 199.476 239.882C194.903 240.853 197.585 244.254 197.585 244.254C192.987 246.427 197.613 251.275 197.613 251.275Z" fill="#2F2E41"/>
<path d="M218.631 266.568C216.339 265.439 213.948 264.498 211.483 263.755L211.168 260.502L198.42 259.218L196.8 263.375L192.225 264.981C192.062 265.039 191.906 265.115 191.761 265.207H191.756C191.007 265.266 190.286 265.499 189.657 265.885C189.231 266.14 188.852 266.458 188.535 266.826C189.154 267.265 189.797 267.672 190.46 268.061L190.489 268.075C190.678 268.183 190.871 268.292 191.064 268.396C191.413 268.59 191.771 268.776 192.129 268.952L192.356 269.061C192.878 269.314 193.41 269.554 193.957 269.775C194.068 269.821 194.189 269.866 194.3 269.911C194.31 269.916 194.314 269.916 194.324 269.92C194.58 270.02 194.837 270.115 195.098 270.205C195.956 270.512 196.831 270.774 197.719 270.992C199.986 271.557 202.322 271.843 204.668 271.843C205.524 271.843 206.371 271.806 207.208 271.73C209.119 271.564 211.006 271.208 212.837 270.667C212.841 270.667 212.847 270.662 212.851 270.662C214.007 270.317 215.137 269.899 216.232 269.409C216.236 269.405 216.246 269.405 216.251 269.4C216.498 269.291 216.735 269.174 216.976 269.061L217.092 269.006C217.286 268.911 217.479 268.816 217.673 268.717C218.157 268.468 218.63 268.206 219.099 267.925C219.23 267.853 219.356 267.776 219.486 267.695C219.67 267.582 219.854 267.464 220.033 267.342C219.583 267.07 219.114 266.813 218.631 266.568Z" fill="#61CE78"/>
<path d="M305.171 264.978L300.332 264.566L297.436 262.588C297.436 262.584 297.435 262.581 297.433 262.578L297.425 262.581L297.309 262.501L297.294 262.627L292.407 264.385L287.385 263.301L285.648 265.059L277.909 267.46C277.537 267.692 277.21 267.981 276.942 268.316L276.942 268.321C277.267 268.559 277.601 268.793 277.939 269.015C278.706 269.534 279.503 270.012 280.327 270.448C282.331 271.517 284.473 272.34 286.701 272.898C286.903 272.951 287.105 272.999 287.307 273.045C287.658 273.125 288.013 273.202 288.368 273.265C289.085 273.405 289.811 273.514 290.546 273.594C291.626 273.716 292.713 273.777 293.801 273.775C294.544 273.775 295.28 273.749 296.009 273.695C297.289 273.599 298.56 273.417 299.813 273.153C299.857 273.143 299.902 273.136 299.947 273.122C301.866 272.71 303.73 272.103 305.507 271.311C305.78 271.189 306.052 271.063 306.321 270.934C306.983 270.616 307.626 270.273 308.249 269.906C308.72 269.634 309.18 269.344 309.628 269.043C309.905 268.858 310.178 268.669 310.446 268.474L310.417 268.416C309.94 267.464 309.204 266.646 308.284 266.043C307.364 265.44 306.29 265.073 305.171 264.978Z" fill="#61CE78"/>
<path d="M300.549 242.388C299.984 241.864 299.347 241.414 298.654 241.049C294.376 238.84 289.702 238.802 285.831 240.941C284.868 241.471 283.989 242.124 283.219 242.88C281.047 245.001 279.831 247.821 279.822 250.758V259.467H304.177V249.867C304.177 247.294 302.664 244.317 300.549 242.388Z" fill="#2F2E41"/>
<path d="M291.518 259.229C296.376 259.229 300.314 255.546 300.314 251.002C300.314 246.458 296.376 242.775 291.518 242.775C286.66 242.775 282.722 246.458 282.722 251.002C282.722 255.546 286.66 259.229 291.518 259.229Z" fill="#FFB8B8"/>
<path d="M300.541 243.534C300.523 243.359 300.457 243.191 300.349 243.047C300.241 242.903 300.095 242.788 299.925 242.713C294.421 240.308 288.839 240.371 283.342 242.901H283.241L283.208 243.031C282.124 250.838 282.277 251.01 282.345 251.079C282.451 251.192 282.582 251.282 282.729 251.342C282.865 251.397 283.011 251.426 283.159 251.425H295.706L295.736 251.293C295.882 250.594 296.069 249.903 296.297 249.224C296.797 249.906 297.257 250.613 297.675 251.342L297.728 251.425H300.168C300.214 251.425 300.26 251.422 300.306 251.415C300.558 251.387 300.79 251.274 300.96 251.097C301.027 251.031 301.184 250.87 300.541 243.534Z" fill="#2F2E41"/>
<path d="M400.268 263.922L399.951 260.631L387.038 259.33L385.403 263.54L380.767 265.165C380.599 265.223 380.439 265.3 380.29 265.393C379.365 265.472 378.485 265.806 377.763 266.354C377.868 266.436 377.974 266.514 378.08 266.592C378.102 266.613 378.127 266.63 378.149 266.647C378.444 266.861 378.746 267.072 379.052 267.273C379.132 267.328 379.212 267.382 379.296 267.434C379.967 267.879 380.663 268.291 381.379 268.67C382.064 269.034 382.766 269.371 383.487 269.678C384.812 270.244 386.185 270.706 387.592 271.058C387.788 271.109 387.985 271.157 388.182 271.201C388.524 271.279 388.87 271.354 389.216 271.415C389.915 271.552 390.622 271.658 391.339 271.736C392.391 271.855 393.45 271.914 394.511 271.913C395.235 271.913 395.953 271.887 396.663 271.834C397.91 271.74 399.149 271.564 400.37 271.306C400.414 271.296 400.457 271.289 400.501 271.276C402.371 270.875 404.188 270.283 405.92 269.511C406.186 269.392 406.451 269.269 406.713 269.143C407.358 268.834 407.985 268.5 408.593 268.142C408.811 268.016 409.026 267.887 409.241 267.75C405.938 265.673 401.142 264.184 400.268 263.922Z" fill="#61CE78"/>
<path d="M392.99 257.247C398.126 257.247 402.289 253.353 402.289 248.549C402.289 243.745 398.126 239.851 392.99 239.851C387.854 239.851 383.691 243.745 383.691 248.549C383.691 253.353 387.854 257.247 392.99 257.247Z" fill="#A0616A"/>
<path d="M386.749 244.312C387.711 245.377 389.34 245.678 390.843 245.8C393.895 246.05 398.332 245.644 401.315 245C401.529 246.93 400.948 249.011 402.162 250.598C402.732 248.676 403.063 246.7 403.149 244.707C403.24 243.852 403.121 242.989 402.801 242.184C402.629 241.78 402.341 241.43 401.967 241.172C401.593 240.914 401.15 240.76 400.687 240.726C400.789 240.628 400.86 240.504 400.89 240.37C400.92 240.236 400.909 240.096 400.857 239.968C400.745 239.514 400.498 239.099 400.144 238.771C399.79 238.443 399.344 238.215 398.858 238.114L395.51 237.36C395.51 237.36 392.369 236.071 390.023 236.233C388.933 236.308 387.794 236.451 386.912 237.042C386.029 237.632 385.519 238.805 386.067 239.672C385.381 239.777 384.736 240.045 384.191 240.449C383.647 240.853 383.221 241.381 382.956 241.982C382.62 242.937 382.539 243.954 382.72 244.945C382.921 246.535 383.316 248.099 383.897 249.605L386.749 244.312Z" fill="#2F2E41"/>
<path d="M303.645 170.351C303.363 169.505 302.734 168.799 301.896 168.387C301.064 167.984 300.176 167.692 299.258 167.52C297.652 167.088 295.988 166.875 294.317 166.887C292.651 166.964 290.947 167.502 289.815 168.648C288.683 169.794 288.263 171.614 289.088 172.971L288.997 173.321C290.319 173.468 291.658 173.254 292.852 172.704C294.046 172.154 295.044 171.291 295.725 170.222C296.35 171.145 297.238 171.887 298.289 172.364C299.339 172.842 300.512 173.036 301.674 172.925C302.045 172.897 302.406 172.8 302.736 172.639C303.128 172.397 303.427 172.045 303.59 171.634C303.754 171.222 303.773 170.773 303.645 170.351V170.351Z" fill="#2F2E41"/>
<path d="M422.169 69.4327H411.415C411.204 69.4327 411.001 69.3542 410.852 69.2145C410.702 69.0748 410.619 68.8853 410.619 68.6876C410.619 68.49 410.702 68.3005 410.852 68.1608C411.001 68.0211 411.204 67.9426 411.415 67.9426H422.169C422.381 67.9426 422.583 68.0211 422.733 68.1608C422.882 68.3005 422.966 68.49 422.966 68.6876C422.966 68.8853 422.882 69.0748 422.733 69.2145C422.583 69.3542 422.381 69.4327 422.169 69.4327Z" fill="#3F3D56"/>
<path d="M422.169 72.2269H411.415C411.204 72.2269 411.001 72.1484 410.852 72.0086C410.702 71.8689 410.619 71.6794 410.619 71.4818C410.619 71.2841 410.702 71.0946 410.852 70.9549C411.001 70.8152 411.204 70.7367 411.415 70.7367H422.169C422.381 70.7367 422.583 70.8152 422.733 70.9549C422.882 71.0946 422.966 71.2841 422.966 71.4818C422.966 71.6794 422.882 71.8689 422.733 72.0086C422.583 72.1484 422.381 72.2269 422.169 72.2269Z" fill="#3F3D56"/>
<path d="M422.169 75.021H411.415C411.204 75.021 411.001 74.9425 410.852 74.8027C410.702 74.663 410.619 74.4735 410.619 74.2759C410.619 74.0783 410.702 73.8887 410.852 73.749C411.001 73.6093 411.204 73.5308 411.415 73.5308H422.169C422.381 73.5308 422.583 73.6093 422.733 73.749C422.882 73.8887 422.966 74.0783 422.966 74.2759C422.966 74.4735 422.882 74.663 422.733 74.8027C422.583 74.9425 422.381 75.021 422.169 75.021Z" fill="#3F3D56"/>
</g>
<defs>
<clipPath id="clip0">
<rect width="275.224" height="212.81" fill="white" transform="translate(156.412 66.9261)"/>
</clipPath>
</defs>
</svg>
