<svg xmlns="http://www.w3.org/2000/svg" xmlns:xlink="http://www.w3.org/1999/xlink" width="80" height="80" viewBox="0 0 80 80">
  <defs>
    <linearGradient id="linear-gradient" x2="1" y2="1" gradientUnits="objectBoundingBox">
      <stop offset="0" stop-color="#fe0"/>
      <stop offset="1" stop-color="#ffce00"/>
    </linearGradient>
  </defs>
  <g id="Group_20" data-name="Group 20" transform="translate(-378 -3971)">
    <g id="Rectangle_4" data-name="Rectangle 4" transform="translate(378 3971)">
      <rect id="Rectangle_4-2" data-name="Rectangle 4" width="80" height="80" rx="10" fill="rgba(255,255,255,0.8)"/>
    </g>
    <g id="_1" data-name="1" transform="translate(396 3979)">
      <rect id="Rectangle_6" data-name="Rectangle 6" width="45" height="63.75" rx="6" fill="url(#linear-gradient)"/>
      <path id="Path_2" data-name="Path 2" d="M43.687,59.312H44.1q.131,0,.277-.011a1.771,1.771,0,0,0,.281-.043,1.073,1.073,0,0,0,.244-.088.4.4,0,0,0,.162-.145.358.358,0,0,0,.041-.18,1.147,1.147,0,0,0-.027-.247q-.028-.134-.075-.281t-.1-.286q-.053-.138-.105-.262t-.087-.208l.621-.35a3.029,3.029,0,0,1,.143.352q.071.205.124.425t.087.432a2.485,2.485,0,0,1,.033.377,1.475,1.475,0,0,1-.088.527,1.144,1.144,0,0,1-.285.44,1.182,1.182,0,0,1-.437.257,1.077,1.077,0,0,1-.193.038q-.116.014-.236.021t-.228.009h-.638a.659.659,0,0,1-.111-.014.858.858,0,0,1-.129-.038.567.567,0,0,1-.136-.074,2.124,2.124,0,0,1-.2.735,3.131,3.131,0,0,1-.428.659,4.051,4.051,0,0,1-.579.563,5.068,5.068,0,0,1-.659.447l-.3-.7q.187-.11.374-.237a4.247,4.247,0,0,0,.358-.272,3.514,3.514,0,0,0,.318-.306,2.316,2.316,0,0,0,.256-.333,1.711,1.711,0,0,0,.17-.355,1.146,1.146,0,0,0,.063-.374c0-.016,0-.033,0-.05s0-.034,0-.05v0a2.571,2.571,0,0,0-.063-.346q-.044-.175-.095-.339t-.1-.315q-.051-.151-.085-.272l.639-.3q.1.356.2.589a1.876,1.876,0,0,0,.185.368.589.589,0,0,0,.19.189A.44.44,0,0,0,43.687,59.312Zm.474,2.3-.453-.52.458-.521.453.517Zm1.007-.006-.453-.517.458-.523.453.521Zm-.5-.116.416.475-.418.478-.416-.475ZM38.955,58.9a2.14,2.14,0,0,0,.244.149,3.127,3.127,0,0,0,.3.139,2.361,2.361,0,0,0,.3.1,1.063,1.063,0,0,0,.26.038q.067,0,.18-.008a.934.934,0,0,0,.222-.043.494.494,0,0,0,.189-.11.283.283,0,0,0,.083-.211.74.74,0,0,0-.059-.282,2.056,2.056,0,0,0-.165-.326,3.413,3.413,0,0,0-.24-.339q-.136-.17-.282-.327t-.294-.289a3.232,3.232,0,0,0-.276-.224l.4-.673a5.179,5.179,0,0,1,.484.432,4.652,4.652,0,0,1,.44.513,3.878,3.878,0,0,1,.349.568,2.479,2.479,0,0,1,.212.6,1.449,1.449,0,0,1,0,.624,1.155,1.155,0,0,1-.24.492,1.121,1.121,0,0,1-.44.315,1.354,1.354,0,0,1-.6.091,1.668,1.668,0,0,1-.357-.04,2.584,2.584,0,0,1-.356-.1,2.728,2.728,0,0,1-.336-.152,2.953,2.953,0,0,1-.3-.184ZM37.418,55.49l.685-.256a19.809,19.809,0,0,1,.139,2.158q.005,1.616-.04,2.572l-.7.122q.08-1.406.048-2.356Q37.508,56.488,37.418,55.49Zm-4.495,3.823h.549a3.29,3.29,0,0,0,.673-.071,5.55,5.55,0,0,0,.681-.189,6.632,6.632,0,0,0,.661-.269q.322-.152.61-.313a2.2,2.2,0,0,1-.426-.154q-.2-.1-.373-.187t-.338-.158a.842.842,0,0,0-.322-.067.406.406,0,0,0-.174.038.688.688,0,0,0-.151.1.835.835,0,0,0-.124.128q-.055.07-.1.135t-.068.117l-.037.073-.554-.411a2.449,2.449,0,0,1,.216-.355,1.912,1.912,0,0,1,.278-.307,1.32,1.32,0,0,1,.332-.216.909.909,0,0,1,.378-.081,1.377,1.377,0,0,1,.408.062,2.97,2.97,0,0,1,.4.157q.2.094.4.205t.4.207a3.285,3.285,0,0,0,.412.161,1.484,1.484,0,0,0,.426.069l-.056.785q-.373.2-.778.432t-.847.423a6.546,6.546,0,0,1-.925.326,4.206,4.206,0,0,1-1.007.143H32.88a1.8,1.8,0,0,1-.4-.043,1.128,1.128,0,0,1-.336-.135,1.073,1.073,0,0,1-.27-.237,1.456,1.456,0,0,1-.207-.348,2.884,2.884,0,0,1-2.193.773,3.621,3.621,0,0,1-1.376-.237,1.506,1.506,0,0,1-.951-1.111,2.007,2.007,0,0,1-.044-.411,2.081,2.081,0,0,1,.053-.475v0q.032-.149.067-.26t.064-.187q.029-.076.051-.119l.029-.058.514.368q-.027.055-.061.119a1.078,1.078,0,0,0-.065.149,1.283,1.283,0,0,0-.052.2,1.515,1.515,0,0,0-.021.271.731.731,0,0,0,.035.218,1.145,1.145,0,0,0,.088.208.655.655,0,0,0,.226.243,1.362,1.362,0,0,0,.369.164,2.868,2.868,0,0,0,.489.094,5.277,5.277,0,0,0,.586.03q.285,0,.541-.024a3.381,3.381,0,0,0,.476-.078,2.068,2.068,0,0,0,.4-.137,1.2,1.2,0,0,0,.308-.205.838.838,0,0,0,.189-.24,1.781,1.781,0,0,0,.12-.288,2.951,2.951,0,0,0,.08-.309q.032-.158.069-.3l.613.189q-.035.164-.073.327a1.362,1.362,0,0,0-.036.336v0a1.222,1.222,0,0,0,.051.3.6.6,0,0,0,.132.233.585.585,0,0,0,.228.148.972.972,0,0,0,.338.052Zm2.11-3.224-.509.581-.512-.584.509-.581Zm-5.4.916-.453.517L28.724,57l.453-.521Zm1.007,0-.453.52-.458-.524.453-.517ZM25.006,55.49l.685-.256a19.785,19.785,0,0,1,.138,2.158q.005,1.616-.04,2.572l-.7.122q.08-1.406.048-2.356Q25.1,56.488,25.006,55.49ZM23.25,61.05l-.453.517-.458-.52.453-.521Zm1.007,0-.453.521-.458-.524.453-.517Zm-1.9-1.741h.228q.131,0,.277-.011a1.771,1.771,0,0,0,.281-.043,1.073,1.073,0,0,0,.244-.088.4.4,0,0,0,.162-.145.358.358,0,0,0,.041-.18,1.147,1.147,0,0,0-.027-.247q-.028-.134-.075-.281t-.1-.286q-.053-.138-.105-.262t-.087-.208l.621-.35a3.027,3.027,0,0,1,.143.352q.071.205.124.425t.087.432a2.484,2.484,0,0,1,.033.377,1.475,1.475,0,0,1-.088.527,1.144,1.144,0,0,1-.285.44,1.182,1.182,0,0,1-.437.257,1.075,1.075,0,0,1-.193.038q-.116.014-.236.021t-.228.009h-.577a.3.3,0,0,1-.129-.028.591.591,0,0,1-.335-.2l-.056-.07-.056.067a.64.64,0,0,1-.5.222A1.052,1.052,0,0,1,20.716,60a2.254,2.254,0,0,1-.357-.17,3.282,3.282,0,0,1-.376-.25,1.034,1.034,0,0,1-.229.259,1.076,1.076,0,0,1-.706.259.314.314,0,0,1-.064-.006,1.2,1.2,0,0,1-.531-.128,3.243,3.243,0,0,1-.037.517,2.543,2.543,0,0,1-.131.508,2.079,2.079,0,0,1-.233.452,1.336,1.336,0,0,1-.345.348h0a1.528,1.528,0,0,1-.269.167,1.85,1.85,0,0,1-.305.116,2.629,2.629,0,0,1-.34.071q-.178.026-.378.038a2.138,2.138,0,0,1-.763-.122,1.6,1.6,0,0,1-.553-.35,1.883,1.883,0,0,1-.421-.7,2.563,2.563,0,0,1-.138-.845,3.771,3.771,0,0,1,.029-.482,3.425,3.425,0,0,1,.088-.446,4.046,4.046,0,0,1,.149-.447q.091-.228.213-.49l.559.463q-.083.17-.162.373a4.1,4.1,0,0,0-.14.42,3.135,3.135,0,0,0-.088.437,1.708,1.708,0,0,0,0,.42,1.492,1.492,0,0,0,.039.175,1.174,1.174,0,0,0,.083.212,1.306,1.306,0,0,0,.138.218.929.929,0,0,0,.2.192,1.08,1.08,0,0,0,.281.137,1.185,1.185,0,0,0,.372.053h.045a.121.121,0,0,0,.027,0,3.571,3.571,0,0,0,.5-.061,1.518,1.518,0,0,0,.412-.141,1.041,1.041,0,0,0,.313-.25,1.086,1.086,0,0,0,.2-.382,1.288,1.288,0,0,0,.055-.452,2.449,2.449,0,0,0-.08-.5,4.765,4.765,0,0,0-.177-.536q-.109-.277-.234-.563l.591-.429.229.5a2.1,2.1,0,0,0,.232.417.934.934,0,0,0,.216.215.459.459,0,0,0,.2.079,1.609,1.609,0,0,0,.18.011.326.326,0,0,1,.044,0,.688.688,0,0,0,.547-.329,2.274,2.274,0,0,0,.189-.319q.059-.122.152-.341l.067-.152a1.828,1.828,0,0,1,.344-.548.7.7,0,0,1,.52-.219.882.882,0,0,1,.642.277,1.341,1.341,0,0,1,.36.867v.027l0,.009v.006a.077.077,0,0,1,0,.021v.015a.1.1,0,0,0,0,.021c0,.022,0,.046.005.07a1.744,1.744,0,0,0,.032.216q.077.365.37.368h.005A.313.313,0,0,1,22.356,59.312Zm-1.182.043q.194-.064.205-.374a.969.969,0,0,0-.091-.472.737.737,0,0,0-.226-.28.352.352,0,0,0-.29-.07q-.088.021-.256.4l-.1.219-.029.073a.185.185,0,0,0-.013.03l-.027.073a2.333,2.333,0,0,0,.778.4A.149.149,0,0,0,21.175,59.355Zm-4.154-1.1-.509.581L16,58.25l.509-.581Zm-5.139,1.059h.328q.112,0,.221-.011a.881.881,0,0,0,.205-.044.54.54,0,0,0,.169-.094A.4.4,0,0,0,12.919,59a.526.526,0,0,0,.029-.2,1.245,1.245,0,0,0-.028-.222q-.028-.143-.077-.316t-.115-.359q-.065-.186-.137-.347l.616-.347q.067.173.133.368t.119.4q.052.205.084.412a2.644,2.644,0,0,1,.032.4,1.473,1.473,0,0,1-.088.527,1.144,1.144,0,0,1-.285.44,1.182,1.182,0,0,1-.437.257,1.275,1.275,0,0,1-.294.059q-.142.011-.265.011h-.4A1.413,1.413,0,0,1,11.31,60a1,1,0,0,1-.381-.263.844.844,0,0,1-.148-.236,1.335,1.335,0,0,1-.076-.247,1.442,1.442,0,0,1-.028-.228q0-.108,0-.187,0-.1.007-.323t0-.545q0-.192,0-.409t0-.443q0-.225-.009-.452t-.019-.437q-.012-.21-.029-.394t-.041-.327l.669-.228q.029.176.051.426t.035.531q.013.282.021.575t.008.558q0,.079,0,.167l0,.175q0,.087,0,.169v.149q0,.116,0,.218t0,.2q0,.094,0,.186t0,.186a2.159,2.159,0,0,0,.005.218.244.244,0,0,0,.053.151.517.517,0,0,0,.4.119h.024A.281.281,0,0,1,11.882,59.312Zm1.245,1.832-.509.581-.512-.584.509-.581Z" transform="translate(-5.327 -15.088)" fill="#fff"/>
      <path id="Path_3" data-name="Path 3" d="M43.687,59.312H44.1q.131,0,.277-.011a1.771,1.771,0,0,0,.281-.043,1.073,1.073,0,0,0,.244-.088.4.4,0,0,0,.162-.145.358.358,0,0,0,.041-.18,1.147,1.147,0,0,0-.027-.247q-.028-.134-.075-.281t-.1-.286q-.053-.138-.105-.262t-.087-.208l.621-.35a3.029,3.029,0,0,1,.143.352q.071.205.124.425t.087.432a2.485,2.485,0,0,1,.033.377,1.475,1.475,0,0,1-.088.527,1.144,1.144,0,0,1-.285.44,1.182,1.182,0,0,1-.437.257,1.077,1.077,0,0,1-.193.038q-.116.014-.236.021t-.228.009h-.638a.659.659,0,0,1-.111-.014.858.858,0,0,1-.129-.038.567.567,0,0,1-.136-.074,2.124,2.124,0,0,1-.2.735,3.131,3.131,0,0,1-.428.659,4.051,4.051,0,0,1-.579.563,5.068,5.068,0,0,1-.659.447l-.3-.7q.187-.11.374-.237a4.247,4.247,0,0,0,.358-.272,3.514,3.514,0,0,0,.318-.306,2.316,2.316,0,0,0,.256-.333,1.711,1.711,0,0,0,.17-.355,1.146,1.146,0,0,0,.063-.374c0-.016,0-.033,0-.05s0-.034,0-.05v0a2.571,2.571,0,0,0-.063-.346q-.044-.175-.095-.339t-.1-.315q-.051-.151-.085-.272l.639-.3q.1.356.2.589a1.876,1.876,0,0,0,.185.368.589.589,0,0,0,.19.189A.44.44,0,0,0,43.687,59.312Zm.474,2.3-.453-.52.458-.521.453.517Zm1.007-.006-.453-.517.458-.523.453.521Zm-.5-.116.416.475-.418.478-.416-.475ZM38.955,58.9a2.14,2.14,0,0,0,.244.149,3.127,3.127,0,0,0,.3.139,2.361,2.361,0,0,0,.3.1,1.063,1.063,0,0,0,.26.038q.067,0,.18-.008a.934.934,0,0,0,.222-.043.494.494,0,0,0,.189-.11.283.283,0,0,0,.083-.211.74.74,0,0,0-.059-.282,2.056,2.056,0,0,0-.165-.326,3.413,3.413,0,0,0-.24-.339q-.136-.17-.282-.327t-.294-.289a3.232,3.232,0,0,0-.276-.224l.4-.673a5.179,5.179,0,0,1,.484.432,4.652,4.652,0,0,1,.44.513,3.878,3.878,0,0,1,.349.568,2.479,2.479,0,0,1,.212.6,1.449,1.449,0,0,1,0,.624,1.155,1.155,0,0,1-.24.492,1.121,1.121,0,0,1-.44.315,1.354,1.354,0,0,1-.6.091,1.668,1.668,0,0,1-.357-.04,2.584,2.584,0,0,1-.356-.1,2.728,2.728,0,0,1-.336-.152,2.953,2.953,0,0,1-.3-.184ZM37.418,55.49l.685-.256a19.809,19.809,0,0,1,.139,2.158q.005,1.616-.04,2.572l-.7.122q.08-1.406.048-2.356Q37.508,56.488,37.418,55.49Zm-4.495,3.823h.549a3.29,3.29,0,0,0,.673-.071,5.55,5.55,0,0,0,.681-.189,6.632,6.632,0,0,0,.661-.269q.322-.152.61-.313a2.2,2.2,0,0,1-.426-.154q-.2-.1-.373-.187t-.338-.158a.842.842,0,0,0-.322-.067.406.406,0,0,0-.174.038.688.688,0,0,0-.151.1.835.835,0,0,0-.124.128q-.055.07-.1.135t-.068.117l-.037.073-.554-.411a2.449,2.449,0,0,1,.216-.355,1.912,1.912,0,0,1,.278-.307,1.32,1.32,0,0,1,.332-.216.909.909,0,0,1,.378-.081,1.377,1.377,0,0,1,.408.062,2.97,2.97,0,0,1,.4.157q.2.094.4.205t.4.207a3.285,3.285,0,0,0,.412.161,1.484,1.484,0,0,0,.426.069l-.056.785q-.373.2-.778.432t-.847.423a6.546,6.546,0,0,1-.925.326,4.206,4.206,0,0,1-1.007.143H32.88a1.8,1.8,0,0,1-.4-.043,1.128,1.128,0,0,1-.336-.135,1.073,1.073,0,0,1-.27-.237,1.456,1.456,0,0,1-.207-.348,2.884,2.884,0,0,1-2.193.773,3.621,3.621,0,0,1-1.376-.237,1.506,1.506,0,0,1-.951-1.111,2.007,2.007,0,0,1-.044-.411,2.081,2.081,0,0,1,.053-.475v0q.032-.149.067-.26t.064-.187q.029-.076.051-.119l.029-.058.514.368q-.027.055-.061.119a1.078,1.078,0,0,0-.065.149,1.283,1.283,0,0,0-.052.2,1.515,1.515,0,0,0-.021.271.731.731,0,0,0,.035.218,1.145,1.145,0,0,0,.088.208.655.655,0,0,0,.226.243,1.362,1.362,0,0,0,.369.164,2.868,2.868,0,0,0,.489.094,5.277,5.277,0,0,0,.586.03q.285,0,.541-.024a3.381,3.381,0,0,0,.476-.078,2.068,2.068,0,0,0,.4-.137,1.2,1.2,0,0,0,.308-.205.838.838,0,0,0,.189-.24,1.781,1.781,0,0,0,.12-.288,2.951,2.951,0,0,0,.08-.309q.032-.158.069-.3l.613.189q-.035.164-.073.327a1.362,1.362,0,0,0-.036.336v0a1.222,1.222,0,0,0,.051.3.6.6,0,0,0,.132.233.585.585,0,0,0,.228.148.972.972,0,0,0,.338.052Zm2.11-3.224-.509.581-.512-.584.509-.581Zm-5.4.916-.453.517L28.724,57l.453-.521Zm1.007,0-.453.52-.458-.524.453-.517ZM25.006,55.49l.685-.256a19.785,19.785,0,0,1,.138,2.158q.005,1.616-.04,2.572l-.7.122q.08-1.406.048-2.356Q25.1,56.488,25.006,55.49ZM23.25,61.05l-.453.517-.458-.52.453-.521Zm1.007,0-.453.521-.458-.524.453-.517Zm-1.9-1.741h.228q.131,0,.277-.011a1.771,1.771,0,0,0,.281-.043,1.073,1.073,0,0,0,.244-.088.4.4,0,0,0,.162-.145.358.358,0,0,0,.041-.18,1.147,1.147,0,0,0-.027-.247q-.028-.134-.075-.281t-.1-.286q-.053-.138-.105-.262t-.087-.208l.621-.35a3.027,3.027,0,0,1,.143.352q.071.205.124.425t.087.432a2.484,2.484,0,0,1,.033.377,1.475,1.475,0,0,1-.088.527,1.144,1.144,0,0,1-.285.44,1.182,1.182,0,0,1-.437.257,1.075,1.075,0,0,1-.193.038q-.116.014-.236.021t-.228.009h-.577a.3.3,0,0,1-.129-.028.591.591,0,0,1-.335-.2l-.056-.07-.056.067a.64.64,0,0,1-.5.222A1.052,1.052,0,0,1,20.716,60a2.254,2.254,0,0,1-.357-.17,3.282,3.282,0,0,1-.376-.25,1.034,1.034,0,0,1-.229.259,1.076,1.076,0,0,1-.706.259.314.314,0,0,1-.064-.006,1.2,1.2,0,0,1-.531-.128,3.243,3.243,0,0,1-.037.517,2.543,2.543,0,0,1-.131.508,2.079,2.079,0,0,1-.233.452,1.336,1.336,0,0,1-.345.348h0a1.528,1.528,0,0,1-.269.167,1.85,1.85,0,0,1-.305.116,2.629,2.629,0,0,1-.34.071q-.178.026-.378.038a2.138,2.138,0,0,1-.763-.122,1.6,1.6,0,0,1-.553-.35,1.883,1.883,0,0,1-.421-.7,2.563,2.563,0,0,1-.138-.845,3.771,3.771,0,0,1,.029-.482,3.425,3.425,0,0,1,.088-.446,4.046,4.046,0,0,1,.149-.447q.091-.228.213-.49l.559.463q-.083.17-.162.373a4.1,4.1,0,0,0-.14.42,3.135,3.135,0,0,0-.088.437,1.708,1.708,0,0,0,0,.42,1.492,1.492,0,0,0,.039.175,1.174,1.174,0,0,0,.083.212,1.306,1.306,0,0,0,.138.218.929.929,0,0,0,.2.192,1.08,1.08,0,0,0,.281.137,1.185,1.185,0,0,0,.372.053h.045a.121.121,0,0,0,.027,0,3.571,3.571,0,0,0,.5-.061,1.518,1.518,0,0,0,.412-.141,1.041,1.041,0,0,0,.313-.25,1.086,1.086,0,0,0,.2-.382,1.288,1.288,0,0,0,.055-.452,2.449,2.449,0,0,0-.08-.5,4.765,4.765,0,0,0-.177-.536q-.109-.277-.234-.563l.591-.429.229.5a2.1,2.1,0,0,0,.232.417.934.934,0,0,0,.216.215.459.459,0,0,0,.2.079,1.609,1.609,0,0,0,.18.011.326.326,0,0,1,.044,0,.688.688,0,0,0,.547-.329,2.274,2.274,0,0,0,.189-.319q.059-.122.152-.341l.067-.152a1.828,1.828,0,0,1,.344-.548.7.7,0,0,1,.52-.219.882.882,0,0,1,.642.277,1.341,1.341,0,0,1,.36.867v.027l0,.009v.006a.077.077,0,0,1,0,.021v.015a.1.1,0,0,0,0,.021c0,.022,0,.046.005.07a1.744,1.744,0,0,0,.032.216q.077.365.37.368h.005A.313.313,0,0,1,22.356,59.312Zm-1.182.043q.194-.064.205-.374a.969.969,0,0,0-.091-.472.737.737,0,0,0-.226-.28.352.352,0,0,0-.29-.07q-.088.021-.256.4l-.1.219-.029.073a.185.185,0,0,0-.013.03l-.027.073a2.333,2.333,0,0,0,.778.4A.149.149,0,0,0,21.175,59.355Zm-4.154-1.1-.509.581L16,58.25l.509-.581Zm-5.139,1.059h.328q.112,0,.221-.011a.881.881,0,0,0,.205-.044.54.54,0,0,0,.169-.094A.4.4,0,0,0,12.919,59a.526.526,0,0,0,.029-.2,1.245,1.245,0,0,0-.028-.222q-.028-.143-.077-.316t-.115-.359q-.065-.186-.137-.347l.616-.347q.067.173.133.368t.119.4q.052.205.084.412a2.644,2.644,0,0,1,.032.4,1.473,1.473,0,0,1-.088.527,1.144,1.144,0,0,1-.285.44,1.182,1.182,0,0,1-.437.257,1.275,1.275,0,0,1-.294.059q-.142.011-.265.011h-.4A1.413,1.413,0,0,1,11.31,60a1,1,0,0,1-.381-.263.844.844,0,0,1-.148-.236,1.335,1.335,0,0,1-.076-.247,1.442,1.442,0,0,1-.028-.228q0-.108,0-.187,0-.1.007-.323t0-.545q0-.192,0-.409t0-.443q0-.225-.009-.452t-.019-.437q-.012-.21-.029-.394t-.041-.327l.669-.228q.029.176.051.426t.035.531q.013.282.021.575t.008.558q0,.079,0,.167l0,.175q0,.087,0,.169v.149q0,.116,0,.218t0,.2q0,.094,0,.186t0,.186a2.159,2.159,0,0,0,.005.218.244.244,0,0,0,.053.151.517.517,0,0,0,.4.119h.024A.281.281,0,0,1,11.882,59.312Zm1.245,1.832-.509.581-.512-.584.509-.581Z" transform="translate(-5.327 -15.088)" fill="#222852"/>
      <path id="Path_4" data-name="Path 4" d="M34.424,50.132a.6.6,0,0,1,.576.626v3.366a.578.578,0,1,1-1.151,0V50.758A.6.6,0,0,1,34.424,50.132Zm-19.5-2.9q.039,3.5.039,3.5v1.293a2.613,2.613,0,0,1-2.48,2.722A2.613,2.613,0,0,1,10,52.026v-1.22a.578.578,0,1,1,1.151,0v1.22A1.407,1.407,0,0,0,12.48,53.5a1.407,1.407,0,0,0,1.329-1.471v-1.26l-.039-3.518a.578.578,0,1,1,1.151-.015Zm11.67,2.9h2.5a.628.628,0,0,1,0,1.252h-2.5v.536a2.725,2.725,0,0,1-2.6,2.828,2.725,2.725,0,0,1-2.6-2.828V50.805a.578.578,0,1,1,1.151,0V51.92a1.455,1.455,0,1,0,2.9,0V49.848a.578.578,0,1,1,1.151,0Zm-9.437,0h2.087a.628.628,0,0,1,0,1.252H16.584a.538.538,0,0,1-.115-.013c-.01,0-.019-.007-.029-.01a.561.561,0,0,1-.078-.026c-.012-.006-.023-.014-.035-.021a.582.582,0,0,1-.062-.037c-.012-.008-.021-.019-.032-.029a.654.654,0,0,1-.053-.047c-.01-.011-.017-.023-.026-.034a.607.607,0,0,1-.044-.058c-.008-.013-.013-.027-.02-.04A.629.629,0,0,1,16.055,51c-.006-.015-.009-.032-.014-.048a.606.606,0,0,1-.02-.069c0-.018,0-.037-.006-.055s-.007-.044-.007-.067l-.039-3.518a.578.578,0,1,1,1.151-.015Zm14.722,0a.6.6,0,0,1,.576.626v3.366a.578.578,0,1,1-1.151,0V50.758A.6.6,0,0,1,31.875,50.132Zm-7.886,1.214a.524.524,0,0,1-.382-.171.622.622,0,0,1-.159-.417.613.613,0,0,1,.159-.415.526.526,0,0,1,.765,0,.62.62,0,0,1,.158.415.628.628,0,0,1-.158.417A.528.528,0,0,1,23.989,51.346ZM34.423,49.38a.524.524,0,0,1-.382-.171.63.63,0,0,1-.159-.417.622.622,0,0,1,.159-.415.52.52,0,0,1,.488-.162.492.492,0,0,1,.1.034.659.659,0,0,1,.093.053.632.632,0,0,1,.082.074.627.627,0,0,1,0,.832.509.509,0,0,1-.082.072.673.673,0,0,1-.093.055.693.693,0,0,1-.1.032A.511.511,0,0,1,34.423,49.38ZM18.474,53.872a.607.607,0,0,1,.03.11.633.633,0,0,1,.012.114.654.654,0,0,1-.012.116.588.588,0,0,1-.03.108.7.7,0,0,1-.049.1.809.809,0,0,1-.069.089.518.518,0,0,1-.082.072.661.661,0,0,1-.093.055.629.629,0,0,1-.1.032.493.493,0,0,1-.105.011.511.511,0,0,1-.107-.011.613.613,0,0,1-.1-.032.591.591,0,0,1-.095-.055.528.528,0,0,1-.082-.072.641.641,0,0,1-.067-.089.7.7,0,0,1-.051-.1.785.785,0,0,1-.03-.108.651.651,0,0,1-.01-.116.63.63,0,0,1,.01-.114.811.811,0,0,1,.03-.11.8.8,0,0,1,.051-.1.546.546,0,0,1,.067-.089.517.517,0,0,1,.175-.128.536.536,0,0,1,.1-.034.5.5,0,0,1,.212,0,.49.49,0,0,1,.1.034.512.512,0,0,1,.175.128.663.663,0,0,1,.069.089A.783.783,0,0,1,18.474,53.872Zm9.284-1.452h1.548a.492.492,0,0,1,0,.98H27.758a.492.492,0,0,1,0-.98Zm-9.009-.2a.492.492,0,0,1,0,.98H17.2a.492.492,0,0,1,0-.98ZM10.671,10h6.992a.73.73,0,0,1,.478,1.226l-6.975,7.6a.662.662,0,0,1-1.144-.5L10,10.724A.7.7,0,0,1,10.671,10ZM34.339,37.121h-7a.73.73,0,0,1-.478-1.226l6.973-7.6a.662.662,0,0,1,1.144.5L35,36.4A.684.684,0,0,1,34.339,37.121Zm-23.3-6.572,17.906-19.42a3.348,3.348,0,0,1,5.013,0,4.072,4.072,0,0,1,0,5.437L16.054,35.993a3.349,3.349,0,0,1-5.013,0A4.081,4.081,0,0,1,11.04,30.549Z" transform="translate(0 0)" fill="#222852" fill-rule="evenodd"/>
    </g>
  </g>
</svg>
