<svg width="573" height="316" viewBox="0 0 573 316" fill="none" xmlns="http://www.w3.org/2000/svg">
<path d="M446.953 47.506H306.647V44.177H243.027V47.506H102.147C96.905 47.506 92.656 52.398 92.656 58.433V279.622C92.656 285.657 96.905 290.549 102.147 290.549H446.953C452.195 290.549 456.444 285.657 456.444 279.622V58.432C456.444 52.399 452.195 47.506 446.954 47.506H446.953Z" fill="#3F3D56"/>
<path d="M443.719 66.815H105.379V286.553H443.719V66.815Z" fill="#E6E6E6"/>
<path d="M429.485 78.436H119.727V268.371H429.485V78.436Z" fill="white"/>
<path d="M274.259 60.823C276.175 60.823 277.729 59.0344 277.729 56.828C277.729 54.6216 276.175 52.833 274.259 52.833C272.343 52.833 270.789 54.6216 270.789 56.828C270.789 59.0344 272.343 60.823 274.259 60.823Z" fill="#23A455"/>
<path d="M465.943 282.558H432.923V279.819C432.932 279.685 432.887 279.552 432.799 279.45C432.71 279.349 432.585 279.286 432.451 279.276H421.13C420.996 279.286 420.871 279.349 420.782 279.45C420.694 279.552 420.649 279.685 420.658 279.819V279.819V282.558H413.583V279.819C413.592 279.685 413.547 279.552 413.459 279.45C413.37 279.349 413.245 279.286 413.111 279.276H401.79C401.656 279.286 401.531 279.349 401.442 279.45C401.354 279.552 401.309 279.685 401.318 279.819V279.819V282.558H394.243V279.819C394.252 279.685 394.207 279.552 394.119 279.45C394.03 279.349 393.905 279.286 393.771 279.276H382.454C382.32 279.286 382.195 279.349 382.106 279.45C382.018 279.552 381.973 279.685 381.982 279.819V279.819V282.558H374.907V279.819C374.916 279.685 374.871 279.552 374.783 279.45C374.694 279.349 374.569 279.286 374.435 279.276H363.11C362.976 279.286 362.851 279.349 362.762 279.45C362.674 279.552 362.629 279.685 362.638 279.819V279.819V282.558H355.562V279.819C355.571 279.685 355.526 279.552 355.438 279.45C355.349 279.349 355.224 279.286 355.09 279.276H343.77C343.636 279.286 343.511 279.349 343.422 279.45C343.334 279.552 343.289 279.685 343.298 279.819V279.819V282.558H336.222V279.819C336.231 279.685 336.186 279.552 336.098 279.45C336.009 279.349 335.884 279.286 335.75 279.276H324.431C324.297 279.286 324.172 279.349 324.083 279.45C323.995 279.552 323.95 279.685 323.959 279.819V279.819V282.558H316.881V279.819C316.89 279.685 316.845 279.552 316.757 279.45C316.668 279.349 316.543 279.286 316.409 279.276H227.728C227.594 279.286 227.469 279.349 227.38 279.45C227.292 279.552 227.247 279.685 227.256 279.819V279.819V282.558H220.181V279.819C220.19 279.685 220.145 279.552 220.057 279.45C219.968 279.349 219.843 279.286 219.709 279.276H208.388C208.254 279.286 208.129 279.349 208.04 279.45C207.952 279.552 207.907 279.685 207.916 279.819V279.819V282.558H200.841V279.819C200.85 279.685 200.805 279.552 200.717 279.45C200.628 279.349 200.503 279.286 200.369 279.276H189.048C188.914 279.286 188.789 279.349 188.7 279.45C188.612 279.552 188.567 279.685 188.576 279.819V279.819V282.558H181.5V279.819C181.509 279.685 181.464 279.552 181.376 279.45C181.287 279.349 181.162 279.286 181.028 279.276H169.708C169.574 279.286 169.449 279.349 169.36 279.45C169.272 279.552 169.227 279.685 169.236 279.819V279.819V282.558H162.162V279.819C162.171 279.685 162.126 279.552 162.038 279.45C161.949 279.349 161.824 279.286 161.69 279.276H150.368C150.234 279.286 150.109 279.349 150.02 279.45C149.932 279.552 149.887 279.685 149.896 279.819V279.819V282.558H142.821V279.819C142.83 279.685 142.785 279.552 142.697 279.45C142.608 279.349 142.483 279.286 142.349 279.276H131.028C130.894 279.286 130.769 279.349 130.68 279.45C130.592 279.552 130.547 279.685 130.556 279.819V279.819V282.558H123.481V279.819C123.49 279.685 123.445 279.552 123.357 279.45C123.268 279.349 123.143 279.286 123.009 279.276H111.685C111.551 279.286 111.426 279.349 111.337 279.45C111.249 279.552 111.204 279.685 111.213 279.819V279.819V282.558H89.513C83.26 282.558 78.192 288.394 78.192 295.592V301.485C78.192 308.685 83.261 314.519 89.513 314.519H465.943C472.195 314.519 477.264 308.684 477.264 301.485V295.592C477.264 288.392 472.195 282.558 465.943 282.558Z" fill="#3F3D56"/>
<path d="M343.095 91.757H206.118V257.532H343.095V91.757Z" fill="#E6E6E6"/>
<path d="M572.177 313.966H0V315.208H572.177V313.966Z" fill="#E6E6E6"/>
<path d="M516.61 270.588C524.363 280.166 524.763 294.244 524.763 294.244C524.763 294.244 512.594 292.792 504.841 283.215C497.088 273.638 496.688 259.559 496.688 259.559C496.688 259.559 508.855 261.011 516.61 270.588Z" fill="#23A455"/>
<path d="M541.012 285.539C532.693 294.465 520.465 294.926 520.465 294.926C520.465 294.926 521.726 280.916 530.045 271.99C538.364 263.064 550.592 262.603 550.592 262.603C550.592 262.603 549.333 276.618 541.012 285.539Z" fill="#23A455"/>
<path d="M538.946 313.965H508.346C507.729 313.944 507.132 313.739 506.631 313.379C506.13 313.018 505.747 312.516 505.531 311.938L498.869 296.172C498.636 295.615 498.529 295.013 498.557 294.41C498.584 293.807 498.746 293.217 499.029 292.684C499.277 292.188 499.655 291.769 500.122 291.471C500.59 291.173 501.13 291.008 501.684 290.993H545.606C546.16 291.008 546.7 291.173 547.168 291.471C547.635 291.769 548.013 292.188 548.261 292.684C548.544 293.217 548.705 293.807 548.733 294.41C548.761 295.013 548.654 295.615 548.421 296.172L541.762 311.939C541.546 312.517 541.163 313.019 540.662 313.379C540.161 313.74 539.564 313.944 538.947 313.966L538.946 313.965Z" fill="#E5E5E5"/>
<path d="M32.87 270.588C40.623 280.166 41.023 294.244 41.023 294.244C41.023 294.244 28.854 292.792 21.101 283.215C13.348 273.638 12.948 259.559 12.948 259.559C12.948 259.559 25.121 261.011 32.87 270.588Z" fill="#E5E5E5"/>
<path d="M50.358 313.965H19.758C19.1411 313.943 18.5444 313.739 18.0435 313.378C17.5426 313.018 17.16 312.516 16.944 311.938L10.282 296.172C10.0488 295.615 9.94213 295.013 9.9698 294.41C9.99747 293.807 10.1587 293.217 10.442 292.684C10.6897 292.188 11.0675 291.769 11.5352 291.471C12.0029 291.173 12.5427 291.008 13.097 290.993H57.019C57.5733 291.008 58.1131 291.173 58.5808 291.471C59.0484 291.769 59.4263 292.188 59.674 292.684C59.9572 293.217 60.1185 293.807 60.1462 294.41C60.1738 295.013 60.0672 295.615 59.834 296.172L53.172 311.939C52.9559 312.517 52.5731 313.019 52.072 313.38C51.571 313.74 50.9741 313.945 50.357 313.966L50.358 313.965Z" fill="#E5E5E5"/>
<path d="M291.135 138.685C301.189 138.685 309.34 129.301 309.34 117.726C309.34 106.151 301.189 96.767 291.135 96.767C281.081 96.767 272.93 106.151 272.93 117.726C272.93 129.301 281.081 138.685 291.135 138.685Z" fill="#A0616A"/>
<path d="M249.244 257.875L261 172.667C262.264 163.502 266.891 155.406 273.7 150.442C276.928 148.017 280.697 146.411 284.683 145.764C288.668 145.117 292.751 145.447 296.581 146.726V146.726C310.437 151.34 318.975 167.326 316.298 183.644L303.998 259.738L249.244 257.875Z" fill="#23A455"/>
<path d="M296.161 273.119C297.104 272.367 297.884 271.43 298.451 270.366C299.019 269.301 299.362 268.132 299.461 266.93C299.728 264.461 299.009 261.987 297.461 260.045L309.614 232.95L295.919 234.637L286.477 260.109C285.228 261.748 284.538 263.744 284.508 265.804C284.477 267.864 285.109 269.879 286.309 271.554C286.832 272.329 287.509 272.989 288.297 273.492C289.086 273.995 289.969 274.33 290.893 274.477C291.816 274.624 292.76 274.58 293.666 274.347C294.572 274.115 295.42 273.698 296.158 273.124L296.161 273.119Z" fill="#A0616A"/>
<path d="M298.763 255.27C298.071 255.151 297.438 254.805 296.963 254.288L292.313 249.341C291.801 248.762 291.455 248.056 291.312 247.296C291.17 246.537 291.236 245.753 291.504 245.028L300.797 219.668L299.478 169.56C300.278 162.791 305.697 158.052 311.578 158.975C317.459 159.898 321.578 166.135 320.772 172.904L323.026 204.404C323.748 213.814 321.426 223.207 316.401 231.196L301.91 253.75C301.656 254.167 301.311 254.522 300.901 254.789C300.491 255.055 300.027 255.226 299.542 255.289C299.283 255.318 299.021 255.312 298.763 255.27V255.27Z" fill="#23A455"/>
<path d="M186.3 106.308C186.467 107.493 186.88 108.631 187.51 109.648C188.141 110.666 188.977 111.541 189.964 112.218C190.882 112.83 191.938 113.202 193.037 113.3C194.135 113.398 195.241 113.218 196.252 112.778L213.186 136.226L217.177 121.06L200.486 101.118C198.91 97.15 195.01 95.161 191.399 96.482C187.788 97.803 185.599 102.02 186.299 106.307L186.3 106.308Z" fill="#A0616A"/>
<path d="M199.564 116.027C199.892 115.379 200.411 114.847 201.051 114.503L206.821 111.503C207.447 111.183 208.164 111.09 208.851 111.24C209.538 111.391 210.151 111.775 210.586 112.327L227.247 132.067L267.84 150.207C272.94 153.697 274.62 161.287 271.589 167.161C268.558 173.035 261.965 174.967 256.863 171.477L230.795 161.583C222.567 158.293 215.851 152.069 211.948 144.113L199.557 119.955C199.073 118.992 198.963 117.883 199.249 116.844C199.326 116.561 199.433 116.287 199.569 116.027H199.564Z" fill="#23A455"/>
<path opacity="0.1" d="M305.9 190.404L305.159 217.711L291.505 245.03L302.905 214.588L305.9 190.404Z" fill="black"/>
<path d="M278.806 107.221C280.684 109.78 283.861 110.501 286.793 110.797C293.661 111.232 300.554 110.584 307.22 108.877C307.635 113.511 306.503 118.506 308.873 122.318C309.987 117.68 310.633 112.941 310.799 108.174C310.977 106.129 310.745 104.069 310.118 102.115C309.394 100.231 307.818 98.632 305.995 98.615C307.299 97.4577 308.891 96.6738 310.604 96.346L304.844 93.014L306.323 91.266L295.896 90.532L298.916 88.323C294.38 87.6037 289.773 87.4359 285.196 87.823C283.022 87.8354 280.905 88.5131 279.128 89.765C277.407 91.182 276.412 93.999 277.481 96.081C276.074 96.3966 274.774 97.0742 273.709 98.0468C272.644 99.0194 271.852 100.253 271.411 101.626C270.754 103.938 270.597 106.364 270.95 108.742C271.34 112.539 272.11 116.287 273.25 119.93" fill="#2F2E41"/>
<path d="M356.629 54.716L190.748 98.807C190.319 98.8943 189.877 98.8919 189.45 98.8002C189.022 98.7084 188.618 98.5291 188.263 98.2737C187.908 98.0183 187.609 97.6921 187.386 97.3158C187.163 96.9395 187.021 96.5211 186.967 96.087L177.467 48.713C177.249 47.8235 177.37 46.8847 177.807 46.0798C178.244 45.2749 178.965 44.6617 179.83 44.36L345.712 0.267992C346.141 0.180721 346.583 0.183052 347.01 0.274828C347.438 0.366604 347.842 0.545842 348.197 0.801287C348.552 1.05673 348.851 1.38286 349.074 1.75917C349.297 2.13549 349.44 2.55386 349.493 2.98799L358.993 50.362C359.211 51.2515 359.09 52.1903 358.653 52.9952C358.216 53.8001 357.495 54.4133 356.63 54.715L356.629 54.716Z" fill="white"/>
<path d="M356.629 54.716L190.748 98.807C190.319 98.8943 189.877 98.8919 189.45 98.8002C189.022 98.7084 188.618 98.5291 188.263 98.2737C187.908 98.0183 187.609 97.6921 187.386 97.3158C187.163 96.9395 187.021 96.5211 186.967 96.087L177.467 48.713C177.249 47.8235 177.37 46.8847 177.807 46.0798C178.244 45.2749 178.965 44.6617 179.83 44.36L345.712 0.267992C346.141 0.180721 346.583 0.183052 347.01 0.274828C347.438 0.366604 347.842 0.545842 348.197 0.801287C348.552 1.05673 348.851 1.38286 349.074 1.75917C349.297 2.13549 349.44 2.55386 349.493 2.98799L358.993 50.362C359.211 51.2515 359.09 52.1903 358.653 52.9952C358.216 53.8001 357.495 54.4133 356.63 54.715L356.629 54.716ZM180.113 45.775C179.594 45.956 179.161 46.3239 178.899 46.8069C178.637 47.2898 178.564 47.8532 178.695 48.387L188.195 95.761C188.227 96.0217 188.312 96.273 188.446 96.4991C188.579 96.7252 188.759 96.9211 188.972 97.0744C189.185 97.2278 189.428 97.3353 189.684 97.3901C189.941 97.4449 190.207 97.4459 190.464 97.393L356.346 53.301C356.865 53.1202 357.298 52.7523 357.56 52.2693C357.823 51.7862 357.895 51.2228 357.764 50.689L348.264 3.314C348.232 3.05328 348.147 2.80195 348.013 2.57588C347.88 2.34982 347.701 2.15392 347.487 2.00057C347.274 1.84721 347.031 1.73972 346.775 1.68489C346.518 1.63006 346.252 1.62907 345.995 1.68199L180.113 45.775Z" fill="#E6E6E6"/>
<path d="M237.673 45.628C237.086 45.8319 236.596 46.2473 236.298 46.7931C236.001 47.3389 235.917 47.976 236.064 48.58C236.1 48.875 236.196 49.1594 236.347 49.4154C236.497 49.6714 236.7 49.8934 236.941 50.0674C237.181 50.2413 237.456 50.3635 237.746 50.4263C238.037 50.4891 238.337 50.491 238.628 50.432H238.635L336.952 24.299C337.538 24.0933 338.027 23.6767 338.322 23.1304C338.618 22.5841 338.7 21.9473 338.552 21.344C338.516 21.049 338.419 20.7648 338.268 20.509C338.117 20.2533 337.914 20.0317 337.673 19.8582C337.432 19.6847 337.157 19.563 336.867 19.5008C336.576 19.4386 336.276 19.4373 335.985 19.497L237.673 45.628Z" fill="#E6E6E6"/>
<path d="M240.565 60.035C239.978 60.239 239.488 60.6544 239.19 61.2002C238.893 61.7459 238.809 62.383 238.956 62.987C238.991 63.282 239.088 63.5665 239.239 63.8224C239.389 64.0784 239.592 64.3004 239.832 64.4744C240.073 64.6484 240.348 64.7706 240.638 64.8333C240.928 64.8961 241.229 64.898 241.52 64.839H241.527L283.833 53.594C284.42 53.3901 284.91 52.9746 285.208 52.4289C285.505 51.8831 285.589 51.246 285.442 50.642C285.406 50.347 285.31 50.0626 285.159 49.8066C285.009 49.5506 284.806 49.3286 284.565 49.1546C284.325 48.9806 284.05 48.8584 283.76 48.7957C283.469 48.7329 283.169 48.731 282.878 48.79H282.871L240.565 60.035Z" fill="#E6E6E6"/>
<path d="M210.794 77.56C217.886 77.56 223.636 70.9401 223.636 62.774C223.636 54.6079 217.886 47.988 210.794 47.988C203.702 47.988 197.952 54.6079 197.952 62.774C197.952 70.9401 203.702 77.56 210.794 77.56Z" fill="#23A455"/>
<path d="M210.433 71.303C210.012 71.4151 209.565 71.3663 209.178 71.166L209.153 71.153L203.986 68.453C203.481 68.1474 203.103 67.6707 202.921 67.1098C202.738 66.5489 202.763 65.9411 202.991 65.397C203.073 65.1349 203.21 64.8936 203.394 64.6896C203.577 64.4855 203.803 64.3236 204.055 64.2149C204.307 64.1061 204.58 64.0532 204.854 64.0596C205.129 64.066 205.398 64.1316 205.645 64.252L208.993 66.007L213.693 54.123C213.774 53.8609 213.911 53.6195 214.095 53.4154C214.278 53.2113 214.504 53.0494 214.756 52.9407C215.008 52.8321 215.28 52.7794 215.555 52.7862C215.829 52.7929 216.099 52.8591 216.345 52.98L216.317 53.058L216.347 52.98C216.851 53.286 217.228 53.7624 217.41 54.3228C217.592 54.8832 217.567 55.4903 217.34 56.034L211.815 70.013C211.703 70.3207 211.519 70.5977 211.28 70.8216C211.041 71.0455 210.752 71.21 210.438 71.302L210.433 71.303Z" fill="white"/>
</svg>
