<svg width="500" height="249" viewBox="0 0 500 249" fill="none" xmlns="http://www.w3.org/2000/svg">
<path d="M242.195 8.052C202.199 8.052 173.482 41.085 173.482 118.161C173.482 205.515 202.199 228.638 242.195 228.638C282.192 228.638 312.62 203.312 312.62 118.161C312.62 27.137 282.192 8.052 242.195 8.052ZM242.458 199.642C214.756 199.642 200.283 178.721 200.283 118.218C200.283 64.833 215.348 36.68 243.051 36.68C270.753 36.68 285.819 55.172 285.819 118.218C285.819 177.195 270.161 199.642 242.458 199.642Z" fill="#2F2E41"/>
<path d="M149.532 167.71H132.995V105.023C132.995 101.694 131.967 98.5 130.138 96.146C128.309 93.792 125.829 92.469 123.242 92.469H119.367C118.087 92.469 116.819 92.794 115.635 93.425C114.452 94.056 113.377 94.98 112.471 96.146C111.566 97.312 110.847 98.696 110.357 100.219C109.867 101.742 109.615 103.375 109.615 105.023V167.71H62.97C62.0104 167.71 61.0671 167.391 60.2316 166.784C59.3961 166.176 58.6968 165.301 58.2015 164.243C57.7062 163.185 57.4317 161.98 57.4047 160.745C57.3777 159.51 57.5991 158.288 58.0473 157.195L107.416 36.912C108.031 35.413 108.404 33.768 108.513 32.078C108.621 30.387 108.462 28.686 108.045 27.077C107.628 25.468 106.963 23.985 106.088 22.716C105.214 21.447 104.149 20.42 102.957 19.695L100.043 17.924C97.7801 16.548 95.193 16.345 92.8169 17.356C90.4409 18.368 88.4578 20.516 87.278 23.357L27.0665 168.354C26.0412 170.823 25.5048 173.579 25.5048 176.379C25.5048 178.615 25.8469 180.828 26.5114 182.894C27.176 184.959 28.1501 186.836 29.3781 188.416C30.606 189.997 32.0639 191.251 33.6683 192.107C35.2727 192.962 36.9923 193.402 38.729 193.402H109.615V233.042C109.615 235.018 109.917 236.975 110.505 238.801C111.092 240.626 111.953 242.285 113.039 243.683C114.124 245.08 115.413 246.188 116.831 246.945C118.25 247.701 119.77 248.09 121.305 248.09C122.84 248.09 124.36 247.701 125.778 246.945C127.197 246.188 128.485 245.08 129.571 243.683C130.656 242.285 131.517 240.626 132.105 238.801C132.692 236.975 132.995 235.018 132.995 233.042V193.403H149.532C152.178 193.403 154.717 192.049 156.588 189.64C158.459 187.231 159.511 183.963 159.511 180.556C159.511 177.149 158.459 173.882 156.588 171.473C154.717 169.064 152.178 167.71 149.532 167.71Z" fill="#61CE70"/>
<path d="M455.75 167.71H439.213V105.023C439.213 101.694 438.185 98.5 436.356 96.146C434.527 93.792 432.047 92.469 429.46 92.469H425.585C424.305 92.469 423.037 92.794 421.853 93.425C420.67 94.056 419.595 94.98 418.69 96.146C417.784 97.312 417.066 98.696 416.575 100.219C416.085 101.742 415.833 103.375 415.833 105.023V167.71H369.188C368.228 167.71 367.285 167.391 366.45 166.784C365.614 166.176 364.915 165.301 364.42 164.243C363.924 163.185 363.65 161.98 363.623 160.745C363.596 159.51 363.817 158.288 364.265 157.195L413.634 36.912C414.25 35.413 414.623 33.768 414.731 32.078C414.839 30.387 414.68 28.686 414.263 27.077C413.846 25.468 413.181 23.985 412.306 22.716C411.432 21.447 410.367 20.42 409.176 19.695L406.261 17.924C403.998 16.548 401.411 16.345 399.035 17.356C396.659 18.368 394.676 20.516 393.496 23.357L333.285 168.354C332.259 170.823 331.723 173.579 331.723 176.379C331.723 180.894 333.116 185.224 335.596 188.416C338.076 191.609 341.44 193.402 344.947 193.402H415.833V233.042C415.833 237.033 417.065 240.86 419.257 243.683C421.449 246.505 424.423 248.09 427.523 248.09C430.623 248.09 433.597 246.505 435.789 243.683C437.981 240.86 439.213 237.033 439.213 233.042V193.403H455.75C458.396 193.403 460.935 192.049 462.806 189.64C464.678 187.231 465.729 183.963 465.729 180.556C465.729 177.149 464.678 173.882 462.806 171.473C460.935 169.064 458.396 167.71 455.75 167.71Z" fill="#61CE70"/>
<path d="M154.094 160.37H137.557V97.683C137.557 96.034 137.304 94.401 136.814 92.878C136.324 91.355 135.606 89.971 134.7 88.805C133.795 87.64 132.72 86.715 131.536 86.084C130.353 85.453 129.085 85.128 127.804 85.128H123.929C121.343 85.128 118.862 86.451 117.033 88.805C115.204 91.16 114.177 94.353 114.177 97.683V160.37H67.5319C66.5723 160.37 65.629 160.05 64.7935 159.443C63.958 158.835 63.2587 157.96 62.7634 156.902C62.2681 155.844 61.9936 154.639 61.9666 153.404C61.9396 152.17 62.161 150.947 62.6093 149.855L111.978 29.572C112.593 28.072 112.966 26.427 113.075 24.737C113.183 23.047 113.024 21.346 112.607 19.737C112.19 18.128 111.525 16.644 110.65 15.375C109.776 14.107 108.711 13.079 107.519 12.355L104.605 10.583C102.342 9.208 99.7549 9.004 97.3789 10.016C95.0028 11.027 93.0197 13.176 91.8399 16.017L31.6285 161.013C30.6031 163.482 30.0667 166.239 30.0667 169.039C30.0667 173.553 31.46 177.883 33.94 181.076C36.42 184.268 39.7836 186.062 43.2909 186.062H114.177V225.701C114.177 227.677 114.479 229.634 115.067 231.46C115.654 233.286 116.515 234.945 117.601 236.342C118.686 237.739 119.975 238.848 121.393 239.604C122.812 240.36 124.332 240.75 125.867 240.75C128.967 240.75 131.941 239.164 134.133 236.342C136.325 233.52 137.557 229.692 137.557 225.701V186.062H154.094C155.404 186.062 156.702 185.73 157.912 185.084C159.123 184.438 160.223 183.492 161.15 182.299C162.077 181.107 162.812 179.69 163.313 178.132C163.815 176.573 164.073 174.903 164.073 173.216C164.073 171.529 163.815 169.858 163.313 168.3C162.812 166.741 162.077 165.325 161.15 164.132C160.223 162.939 159.123 161.993 157.912 161.348C156.702 160.702 155.404 160.37 154.094 160.37Z" stroke="#3F3D56" stroke-miterlimit="10"/>
<path d="M464.303 160.37H447.766V97.683C447.766 94.353 446.739 91.16 444.91 88.805C443.081 86.451 440.601 85.128 438.014 85.128H434.139C432.858 85.128 431.59 85.453 430.407 86.084C429.224 86.715 428.149 87.64 427.243 88.805C426.337 89.971 425.619 91.355 425.129 92.878C424.639 94.401 424.387 96.034 424.387 97.683V160.37H377.742C376.782 160.37 375.839 160.05 375.003 159.443C374.168 158.835 373.468 157.96 372.973 156.902C372.478 155.844 372.203 154.639 372.176 153.404C372.149 152.17 372.371 150.947 372.819 149.855L422.188 29.572C422.803 28.072 423.176 26.427 423.284 24.737C423.392 23.047 423.233 21.346 422.817 19.737C422.4 18.128 421.734 16.644 420.86 15.375C419.986 14.107 418.92 13.079 417.729 12.355L414.815 10.583C412.552 9.208 409.965 9.004 407.589 10.016C405.213 11.027 403.229 13.176 402.05 16.017L341.838 161.013C340.813 163.482 340.276 166.239 340.276 169.039C340.276 173.553 341.67 177.883 344.15 181.076C346.63 184.268 349.993 186.062 353.501 186.062H424.387V225.701C424.387 229.692 425.618 233.52 427.811 236.342C430.003 239.164 432.976 240.75 436.077 240.75C439.177 240.75 442.15 239.164 444.343 236.342C446.535 233.52 447.766 229.692 447.766 225.701V186.062H464.303C465.614 186.062 466.911 185.73 468.122 185.084C469.333 184.438 470.433 183.492 471.36 182.299C472.286 181.107 473.021 179.69 473.523 178.132C474.024 176.573 474.282 174.903 474.282 173.216C474.282 169.809 473.231 166.541 471.36 164.132C469.488 161.723 466.95 160.37 464.303 160.37Z" stroke="#3F3D56" stroke-miterlimit="10"/>
<path d="M251.319 1.4453C211.323 1.4453 182.606 34.478 182.606 111.555C182.606 198.908 211.323 222.031 251.319 222.031C291.316 222.031 321.744 196.706 321.744 111.555C321.744 20.531 291.316 1.4453 251.319 1.4453ZM251.582 193.036C223.88 193.036 209.407 172.114 209.407 111.611C209.407 58.226 224.472 30.074 252.175 30.074C279.877 30.074 294.943 48.566 294.943 111.611C294.943 170.589 279.285 193.036 251.582 193.036Z" stroke="#3F3D56" stroke-miterlimit="10"/>
<path d="M468.574 159.343C469.984 160.003 471.493 160.232 472.983 160.013C474.474 159.793 475.904 159.131 477.162 158.079C478.419 157.026 479.47 155.612 480.231 153.948C480.992 152.284 481.442 150.415 481.545 148.489C481.649 146.562 481.404 144.631 480.83 142.848C480.255 141.064 479.366 139.477 478.233 138.211C477.101 136.945 475.755 136.034 474.303 135.552C472.85 135.07 471.331 135.028 469.864 135.431L470.106 141.848L467.747 136.348C465.433 137.748 463.644 140.274 462.775 143.371C462.467 144.456 462.279 145.591 462.218 146.744C462.069 149.448 462.609 152.141 463.756 154.414C464.903 156.688 466.594 158.418 468.574 159.343Z" fill="#57B894"/>
<path d="M480.244 233.775C479.412 228.317 483.019 223.478 486.583 220.333C490.147 217.188 494.311 214.098 495.527 208.761C497.274 201.09 492.069 194.066 488.017 188.008C485.012 183.512 482.43 178.574 480.328 173.296C479.485 171.18 478.71 168.968 478.488 166.607C478.169 163.207 479.018 159.823 479.872 156.58C482.72 145.776 485.765 135.062 489.007 124.439" stroke="#3F3D56" stroke-miterlimit="10"/>
<path d="M468.973 157.691C470.382 158.351 471.892 158.58 473.382 158.36C474.873 158.141 476.303 157.479 477.561 156.427C478.818 155.374 479.869 153.96 480.63 152.296C481.39 150.632 481.84 148.763 481.944 146.836C482.048 144.91 481.803 142.979 481.228 141.195C480.654 139.412 479.765 137.824 478.632 136.558C477.5 135.292 476.154 134.382 474.702 133.9C473.249 133.417 471.73 133.376 470.263 133.778L470.505 140.196L468.146 134.696C465.831 136.096 464.043 138.622 463.174 141.719C462.866 142.804 462.678 143.939 462.617 145.092C462.468 147.796 463.008 150.488 464.155 152.762C465.302 155.035 466.993 156.766 468.973 157.691Z" stroke="#3F3D56" stroke-miterlimit="10"/>
<path d="M479.06 122.223C479.614 120.258 480.542 118.504 481.761 117.122C482.979 115.74 484.448 114.776 486.032 114.317L486.829 120.418L488.308 114.01C490.361 114.049 492.351 114.927 493.991 116.517C495.631 118.107 496.836 120.327 497.432 122.856C498.028 125.385 497.984 128.093 497.307 130.588C496.629 133.083 495.354 135.236 493.664 136.737C491.974 138.238 489.957 139.009 487.905 138.938C485.853 138.867 483.871 137.959 482.246 136.344C480.621 134.728 479.436 132.49 478.864 129.952C478.291 127.414 478.36 124.708 479.06 122.223Z" fill="#57B894"/>
<path d="M479.592 120.02C480.146 118.055 481.074 116.301 482.292 114.919C483.511 113.538 484.98 112.573 486.564 112.114L487.361 118.215L488.84 111.807C490.892 111.846 492.883 112.724 494.522 114.314C496.162 115.904 497.367 118.124 497.963 120.653C498.559 123.182 498.516 125.89 497.839 128.385C497.161 130.88 495.886 133.033 494.196 134.534C492.506 136.035 490.489 136.806 488.437 136.735C486.385 136.664 484.403 135.756 482.778 134.141C481.153 132.526 479.968 130.287 479.396 127.749C478.823 125.211 478.892 122.505 479.592 120.02Z" stroke="#3F3D56" stroke-miterlimit="10"/>
<path d="M486.317 188.132C488.553 189.175 491.009 189.124 493.217 187.987C495.425 186.849 497.231 184.706 498.291 181.965C499.35 179.224 499.589 176.077 498.961 173.124C498.334 170.171 496.885 167.618 494.889 165.952L493.753 170.876L492.948 164.703C492.94 164.698 492.931 164.694 492.923 164.691C491.727 164.132 490.457 163.881 489.186 163.954C487.915 164.026 486.668 164.42 485.515 165.114C484.362 165.807 483.327 166.786 482.468 167.994C481.609 169.203 480.944 170.618 480.51 172.157C480.076 173.697 479.882 175.332 479.939 176.968C479.996 178.604 480.303 180.21 480.843 181.693C481.382 183.177 482.143 184.509 483.082 185.614C484.022 186.718 485.121 187.574 486.317 188.132Z" fill="#57B894"/>
<path d="M486.778 185.9C489.014 186.944 491.47 186.893 493.678 185.755C495.886 184.618 497.692 182.475 498.751 179.734C499.811 176.993 500.049 173.846 499.422 170.892C498.795 167.939 497.345 165.387 495.35 163.721L494.214 168.645L493.408 162.472C493.4 162.467 493.392 162.463 493.384 162.46C492.188 161.9 490.918 161.65 489.647 161.722C488.376 161.795 487.128 162.189 485.976 162.882C484.823 163.575 483.788 164.554 482.929 165.763C482.07 166.972 481.405 168.386 480.971 169.926C480.537 171.466 480.343 173.1 480.4 174.736C480.457 176.373 480.764 177.978 481.303 179.462C481.843 180.945 482.604 182.278 483.543 183.382C484.483 184.487 485.582 185.343 486.778 185.9Z" stroke="#3F3D56" stroke-miterlimit="10"/>
<path d="M476.234 208.837C476.618 211.653 477.743 214.213 479.42 216.088C481.096 217.963 483.223 219.039 485.442 219.135C487.662 219.231 489.84 218.342 491.611 216.616C493.382 214.891 494.638 212.434 495.168 209.658C495.699 206.882 495.472 203.955 494.526 201.369C493.579 198.783 491.97 196.694 489.97 195.453C487.969 194.213 485.697 193.895 483.536 194.554C481.375 195.214 479.456 196.809 478.1 199.074L482.416 207.435L476.519 202.997C476.062 204.886 475.964 206.889 476.234 208.837Z" fill="#57B894"/>
<path d="M476.633 207.185C477.017 210.001 478.142 212.561 479.819 214.436C481.495 216.311 483.622 217.386 485.841 217.483C488.061 217.579 490.239 216.69 492.01 214.964C493.78 213.239 495.037 210.782 495.567 208.006C496.098 205.23 495.871 202.303 494.924 199.717C493.978 197.131 492.369 195.042 490.368 193.801C488.368 192.56 486.096 192.243 483.935 192.902C481.774 193.561 479.855 195.157 478.499 197.422L482.815 205.783L476.918 201.345C476.461 203.234 476.363 205.237 476.633 207.185Z" stroke="#3F3D56" stroke-miterlimit="10"/>
<path d="M4.19227 189.716C5.11852 190.149 6.11031 190.3 7.08948 190.156C8.06865 190.012 9.00844 189.577 9.83476 188.885C10.6611 188.194 11.3514 187.265 11.8512 186.171C12.351 185.078 12.6467 183.85 12.715 182.584C12.7832 181.319 12.6222 180.05 12.2446 178.878C11.867 177.706 11.2831 176.663 10.5389 175.831C9.79474 175 8.91067 174.402 7.95637 174.085C7.00207 173.768 6.00362 173.74 5.03973 174.005L5.19902 178.221L3.64936 174.608C2.12847 175.528 0.953512 177.187 0.382698 179.222C0.179977 179.935 0.0567389 180.681 0.016658 181.438C-0.0811568 183.214 0.273559 184.984 1.02705 186.477C1.78054 187.971 2.89175 189.108 4.19227 189.716Z" fill="#57B894"/>
<path d="M11.8596 238.619C11.3126 235.033 13.683 231.854 16.0244 229.787C18.3658 227.721 21.1015 225.691 21.9004 222.184C23.0486 217.145 19.6286 212.529 16.9668 208.549C14.9919 205.595 13.296 202.351 11.9145 198.883C11.3138 197.521 10.9047 196.033 10.706 194.488C10.4961 192.254 11.0537 190.031 11.6153 187.9C13.4864 180.802 15.487 173.763 17.617 166.783" stroke="#3F3D56" stroke-miterlimit="10"/>
<path d="M4.45397 188.63C5.38021 189.064 6.37201 189.214 7.35118 189.07C8.33035 188.926 9.27013 188.491 10.0964 187.8C10.9228 187.108 11.613 186.179 12.1128 185.086C12.6127 183.992 12.9083 182.764 12.9766 181.499C13.0449 180.233 12.8839 178.964 12.5062 177.792C12.1286 176.621 11.5447 175.578 10.8006 174.746C10.0564 173.914 9.17236 173.316 8.21806 172.999C7.26376 172.682 6.26532 172.655 5.30143 172.919L5.46071 177.136L3.91106 173.522C2.39016 174.442 1.2152 176.102 0.644386 178.136C0.441668 178.849 0.318431 179.595 0.278348 180.352C0.180526 182.129 0.53524 183.898 1.28874 185.392C2.04223 186.886 3.15344 188.022 4.45397 188.63Z" stroke="#3F3D56" stroke-miterlimit="10"/>
<path d="M11.0818 165.327C11.4453 164.036 12.0554 162.884 12.8558 161.976C13.6563 161.068 14.6214 160.434 15.6621 160.133L16.1861 164.141L17.1575 159.931C18.5062 159.957 19.8137 160.534 20.8912 161.578C21.9687 162.623 22.7604 164.082 23.152 165.743C23.5436 167.405 23.5149 169.184 23.0699 170.823C22.625 172.462 21.7869 173.877 20.6766 174.863C19.5663 175.849 18.2413 176.356 16.8929 176.309C15.5444 176.263 14.2424 175.666 13.1747 174.605C12.107 173.544 11.3288 172.073 10.9527 170.406C10.5765 168.738 10.6217 166.96 11.0818 165.327Z" fill="#57B894"/>
<path d="M11.4312 163.88C11.7947 162.589 12.4048 161.436 13.2053 160.529C14.0057 159.621 14.9708 158.987 16.0115 158.685L16.5355 162.694L17.5069 158.484C18.8557 158.51 20.1632 159.086 21.2407 160.131C22.3181 161.176 23.1098 162.634 23.5014 164.296C23.893 165.958 23.8643 167.736 23.4194 169.376C22.9744 171.015 22.1363 172.43 21.026 173.416C19.9157 174.402 18.5907 174.908 17.2423 174.862C15.8939 174.815 14.5918 174.218 13.5241 173.157C12.4564 172.096 11.6783 170.626 11.3021 168.958C10.9259 167.291 10.9711 165.512 11.4312 163.88Z" stroke="#3F3D56" stroke-miterlimit="10"/>
<path d="M15.8497 208.63C17.3186 209.316 18.9322 209.282 20.383 208.535C21.8338 207.788 23.0203 206.38 23.7163 204.579C24.4123 202.778 24.5692 200.71 24.1571 198.77C23.7449 196.83 22.7926 195.152 21.4815 194.058L20.7351 197.293L20.2058 193.238C20.2006 193.234 20.1952 193.232 20.1896 193.23C19.4039 192.862 18.5696 192.697 17.7344 192.744C16.8991 192.792 16.0793 193.051 15.3218 193.506C14.5644 193.962 13.884 194.605 13.3198 195.399C12.7555 196.193 12.3183 197.123 12.0332 198.134C11.7481 199.146 11.6206 200.22 11.6582 201.295C11.6957 202.371 11.8974 203.426 12.2519 204.4C12.6063 205.375 13.1065 206.25 13.7238 206.976C14.3411 207.702 15.0635 208.264 15.8497 208.63Z" fill="#57B894"/>
<path d="M16.1525 207.164C17.6214 207.85 19.235 207.816 20.6858 207.069C22.1366 206.322 23.323 204.914 24.0191 203.113C24.7151 201.312 24.872 199.244 24.4598 197.304C24.0477 195.364 23.0953 193.686 21.7843 192.592L21.0379 195.827L20.5086 191.771C20.5034 191.768 20.4979 191.766 20.4924 191.764C19.7068 191.397 18.8729 191.233 18.0381 191.281C17.2033 191.329 16.384 191.588 15.627 192.044C14.0983 192.964 12.9161 194.628 12.3406 196.671C11.7651 198.713 11.8434 200.966 12.5582 202.934C13.2731 204.902 14.566 206.423 16.1525 207.164Z" stroke="#3F3D56" stroke-miterlimit="10"/>
<path d="M9.22474 222.234C9.47731 224.084 10.2164 225.766 11.3179 226.998C12.4195 228.23 13.8166 228.937 15.275 229C16.7333 229.063 18.1642 228.479 19.3276 227.345C20.4911 226.212 21.3163 224.598 21.665 222.774C22.0137 220.95 21.8646 219.027 21.2427 217.328C20.6208 215.628 19.5639 214.256 18.2493 213.441C16.9347 212.626 15.4424 212.417 14.0225 212.85C12.6027 213.283 11.3417 214.332 10.451 215.82L13.2863 221.313L9.41225 218.397C9.11188 219.638 9.04757 220.954 9.22474 222.234Z" fill="#57B894"/>
<path d="M9.48681 221.149C9.73938 222.999 10.4784 224.681 11.58 225.913C12.6816 227.144 14.0787 227.851 15.537 227.914C16.9954 227.978 18.4262 227.394 19.5897 226.26C20.7532 225.126 21.5784 223.512 21.9271 221.688C22.2758 219.864 22.1267 217.941 21.5048 216.242C20.8828 214.543 19.826 213.171 18.5114 212.355C17.1968 211.54 15.7044 211.332 14.2846 211.765C12.8647 212.198 11.6038 213.246 10.7131 214.734L13.5483 220.227L9.67432 217.312C9.37395 218.553 9.30964 219.869 9.48681 221.149Z" stroke="#3F3D56" stroke-miterlimit="10"/>
</svg>
